<svg width="29" height="28" viewBox="0 0 29 28" fill="none" xmlns="http://www.w3.org/2000/svg">
<path d="M28.2668 2.86136C28.2668 2.26491 28.0234 1.69289 27.5902 1.27114C27.157 0.849384 26.5694 0.612446 25.9568 0.612446L7.47683 0.5C6.86418 0.5 6.27662 0.736939 5.84341 1.15869C5.41021 1.58044 5.16683 2.15246 5.16683 2.74891C5.16683 3.34536 5.41021 3.91738 5.84341 4.33913C6.27662 4.76089 6.86418 4.99783 7.47683 4.99783H20.3204L1.21674 23.6413C1.00023 23.8504 0.828378 24.0991 0.711102 24.3732C0.593827 24.6472 0.533447 24.9412 0.533447 25.238C0.533447 25.5349 0.593827 25.8289 0.711102 26.1029C0.828378 26.377 1.00023 26.6257 1.21674 26.8348C1.43148 27.0456 1.68697 27.2129 1.96847 27.327C2.24996 27.4412 2.55189 27.5 2.85684 27.5C3.16178 27.5 3.46371 27.4412 3.74521 27.327C4.0267 27.2129 4.28219 27.0456 4.49693 26.8348L23.6468 8.19128V20.7402C23.6468 21.3367 23.8902 21.9087 24.3234 22.3304C24.7566 22.7522 25.3441 22.9891 25.9568 22.9891C26.5694 22.9891 27.157 22.7522 27.5902 22.3304C28.0234 21.9087 28.2668 21.3367 28.2668 20.7402V2.86136Z" fill="#231F20"/>
</svg>
