<svg width="28" height="28" viewBox="0 0 28 28" fill="none" xmlns="http://www.w3.org/2000/svg">
<path d="M0.266667 25.1386C0.266667 25.7351 0.510039 26.3071 0.943247 26.7289C1.37645 27.1506 1.96401 27.3876 2.57666 27.3876L21.0566 27.5C21.6693 27.5 22.2568 27.2631 22.69 26.8413C23.1232 26.4196 23.3666 25.8475 23.3666 25.2511C23.3666 24.6546 23.1232 24.0826 22.69 23.6609C22.2568 23.2391 21.6693 23.0022 21.0566 23.0022L8.21305 23.0022L27.3167 4.35868C27.5332 4.14961 27.7051 3.90088 27.8223 3.62683C27.9396 3.35278 28 3.05884 28 2.76195C28 2.46507 27.9396 2.17112 27.8223 1.89707C27.7051 1.62302 27.5332 1.37429 27.3167 1.16523C27.102 0.95444 26.8465 0.78713 26.565 0.672956C26.2835 0.558782 25.9816 0.500001 25.6766 0.500001C25.3717 0.500001 25.0697 0.558782 24.7882 0.672956C24.5067 0.78713 24.2513 0.95444 24.0365 1.16523L4.88666 19.8087L4.88666 7.25978C4.88666 6.66333 4.64328 6.09131 4.21008 5.66956C3.77687 5.24781 3.18931 5.01087 2.57666 5.01087C1.96401 5.01087 1.37645 5.24781 0.943247 5.66956C0.510039 6.09131 0.266667 6.66333 0.266667 7.25978L0.266667 25.1386Z" fill="#231F20"/>
</svg>
