<svg width="45" height="46" viewBox="0 0 45 46" fill="none" xmlns="http://www.w3.org/2000/svg">
<path d="M44.6667 23C44.6667 35.7026 34.817 46 22.6667 46C10.5164 46 0.666748 35.7026 0.666748 23C0.666748 10.2974 10.5164 0 22.6667 0C34.817 0 44.6667 10.2974 44.6667 23ZM20.122 35.1783L36.4446 18.1138C36.9989 17.5343 36.9989 16.5948 36.4446 16.0153L34.4374 13.9169C33.8831 13.3373 32.9844 13.3373 32.43 13.9169L19.1184 27.8335L12.9034 21.3361C12.3492 20.7567 11.4505 20.7567 10.8961 21.3361L8.88889 23.4346C8.33463 24.014 8.33463 24.9536 8.88889 25.5331L18.1147 35.1782C18.669 35.7578 19.5677 35.7578 20.122 35.1783Z" fill="#86CB92"/>
</svg>
