<svg width="40" height="41" viewBox="0 0 40 41" fill="none" xmlns="http://www.w3.org/2000/svg">
<path d="M37.3336 28.4722C34.6252 28.4722 32.0252 28.0167 29.5986 27.1739C28.8402 26.9233 27.9952 27.1056 27.3886 27.7206L22.6219 32.7317C16.4902 29.4517 11.4636 24.19 8.34358 17.7439L13.1102 12.71C13.7169 12.095 13.8902 11.2067 13.6519 10.4094C12.8502 7.85833 12.4169 5.125 12.4169 2.27778C12.4169 1.025 11.4419 0 10.2502 0H2.66691C1.47524 0 0.500244 1.025 0.500244 2.27778C0.500244 23.6661 16.9886 41 37.3336 41C38.5252 41 39.5002 39.975 39.5002 38.7222V30.75C39.5002 29.4972 38.5252 28.4722 37.3336 28.4722ZM20.0002 0V22.7778L26.5002 15.9444H39.5002V0H20.0002Z" fill="#86CB92"/>
</svg>
