<svg width="21" height="21" viewBox="0 0 21 21" fill="none" xmlns="http://www.w3.org/2000/svg">
<g id="Frame 37">
<path id="Vector" d="M14.0697 11H8V14H14.0697C15.1297 14 16 13.3216 16 12.4947C16 11.6678 15.1297 11 14.0697 11Z" fill="black"/>
<path id="Vector_2" d="M10.5 0C4.704 0 0 4.704 0 10.5C0 16.296 4.704 21 10.5 21C16.296 21 21 16.296 21 10.5C21 4.704 16.296 0 10.5 0ZM13.6185 15.834H11.886V17.325C11.886 17.7555 11.529 18.1125 11.0985 18.1125C10.668 18.1125 10.311 17.7555 10.311 17.325V15.834H9.0405V17.325C9.0405 17.7555 8.6835 18.1125 8.253 18.1125C7.8225 18.1125 7.4655 17.7555 7.4655 17.325V15.834H5.3025C4.872 15.834 4.515 15.477 4.515 15.0465C4.515 14.616 4.872 14.259 5.3025 14.259H6.3315V6.741H5.3025C4.872 6.741 4.515 6.384 4.515 5.9535C4.515 5.523 4.872 5.166 5.3025 5.166H7.4655V3.675C7.4655 3.2445 7.8225 2.8875 8.253 2.8875C8.6835 2.8875 9.0405 3.2445 9.0405 3.675V5.166H10.311V3.675C10.311 3.2445 10.668 2.8875 11.0985 2.8875C11.529 2.8875 11.886 3.2445 11.886 3.675V5.166H12.81C14.4375 5.166 15.876 6.594 15.876 8.232C15.876 8.9355 15.624 9.576 15.225 10.101C16.2855 10.6155 17.01 11.6235 17.01 12.789C17.01 14.4585 15.4875 15.834 13.6185 15.834Z" fill="black"/>
<path id="Vector_3" d="M14 8.50524C14 7.80562 13.3892 7 12.601 7H8V9.99988H12.601C13.3695 10.0105 14 9.33206 14 8.50524Z" fill="black"/>
</g>
</svg>
