<svg width="17" height="19" viewBox="0 0 17 19" fill="none" xmlns="http://www.w3.org/2000/svg">
<g id="files-csv-collection_svgrepo.com" clip-path="url(#clip0_211_876)">
<path id="Vector" d="M10.625 16.25H11.3333V17.75H2.125V5.75H3.54167V6.5H2.83333V17H10.625V16.25ZM12.75 14.75H4.95833V11.75H4.25V15.5H13.4583V14H12.75V14.75ZM4.95833 4.25H5.66667V3.5H4.25V6.5H4.95833V4.25ZM14.875 11.75V12.5H7.08333V11.75H6.375V13.25H15.5833V11.75H14.875ZM6.375 1.25H13.0333L15.5833 3.95V6.5H14.875V5H12.0417V2H7.08333V6.5H6.375V1.25ZM12.75 4.25H14.875V4.0175L12.9696 2H12.75V4.25ZM14.195 11H13.442L11.9581 7.25H12.7259L13.821 10.016L14.9317 7.25H15.7009L14.195 11ZM11.3333 7.25H9.45554C9.20217 7.2502 8.95924 7.35686 8.78008 7.54655C8.60092 7.73625 8.50019 7.99348 8.5 8.26175V8.48825C8.50019 8.75652 8.60092 9.01375 8.78008 9.20345C8.95924 9.39314 9.20217 9.4998 9.45554 9.5H10.3778C10.4434 9.5 10.5062 9.52758 10.5526 9.57666C10.599 9.62575 10.625 9.69233 10.625 9.76175V9.98825C10.625 10.0577 10.599 10.1242 10.5526 10.1733C10.5062 10.2224 10.4434 10.25 10.3778 10.25H8.5V11H10.3778C10.6312 10.9998 10.8741 10.8931 11.0533 10.7034C11.2324 10.5137 11.3331 10.2565 11.3333 9.98825V9.76175C11.3331 9.49348 11.2324 9.23625 11.0533 9.04655C10.8741 8.85686 10.6312 8.7502 10.3778 8.75H9.45625C9.39069 8.75 9.32781 8.72242 9.28145 8.67334C9.23509 8.62425 9.20904 8.55767 9.20904 8.48825V8.26175C9.20904 8.19233 9.23509 8.12575 9.28145 8.07666C9.32781 8.02758 9.39069 8 9.45625 8H11.3333V7.25ZM6.40404 11H7.79167V10.25H6.40404C6.20854 10.2498 6.02109 10.1675 5.88285 10.0211C5.7446 9.87473 5.66685 9.67626 5.66667 9.46925V8.78075C5.66685 8.57374 5.7446 8.37527 5.88285 8.2289C6.02109 8.08252 6.20854 8.0002 6.40404 8H7.79167V7.25H6.40404C6.02079 7.2506 5.65339 7.41206 5.38239 7.699C5.11139 7.98595 4.9589 8.37495 4.95833 8.78075V9.46925C4.9589 9.87505 5.11139 10.2641 5.38239 10.551C5.65339 10.8379 6.02079 10.9994 6.40404 11Z" fill="black"/>
</g>
<defs>
<clipPath id="clip0_211_876">
<rect width="17" height="18" fill="white" transform="translate(0 0.5)"/>
</clipPath>
</defs>
</svg>
