<svg width="33" height="11" viewBox="0 0 33 11" fill="none" xmlns="http://www.w3.org/2000/svg">
<g clip-path="url(#clip0_3_2)">
<rect width="33" height="11" fill="white"/>
<path d="M-3.56682 -6.45798L19.8143 -10.1426L18.8698 17.2549L-5.92147 14.1192L-2.6733 3.57769L-3.56682 -6.45798Z" fill="#232323" fill-opacity="0.94"/>
<path d="M28.6375 -5.01113L42.7944 4.18246L38.1787 5.18033L34.908 8.26007L33.4374 8.26007L32 10L30.4326 11.7442L30.4326 13.1463L28.6569 25.9523L14.5 16.7587L19.4557 14.6354L15.333 6.08162L19.4557 8.9797e-08L28.6375 -5.01113Z" fill="#0795B5"/>
<g filter="url(#filter0_d_3_2)">
<path d="M6.24716 8H4.44247V2.90909H6.26207C6.77415 2.90909 7.21496 3.01101 7.58452 3.21484C7.95407 3.41702 8.23828 3.70786 8.43715 4.08736C8.63767 4.46686 8.73793 4.92093 8.73793 5.44957C8.73793 5.97988 8.63767 6.43561 8.43715 6.81676C8.23828 7.19792 7.95241 7.49041 7.57955 7.69425C7.20833 7.89808 6.7642 8 6.24716 8ZM5.51882 7.07777H6.20241C6.5206 7.07777 6.78823 7.02143 7.00533 6.90874C7.22408 6.79439 7.38814 6.6179 7.49751 6.37926C7.60855 6.13897 7.66406 5.82907 7.66406 5.44957C7.66406 5.07339 7.60855 4.76598 7.49751 4.52734C7.38814 4.28871 7.22491 4.11304 7.00781 4.00035C6.79072 3.88767 6.52308 3.83132 6.2049 3.83132H5.51882V7.07777ZM11.2554 8.07457C10.8627 8.07457 10.5246 7.99503 10.2412 7.83594C9.95949 7.67519 9.74239 7.44815 9.58993 7.15483C9.43747 6.85985 9.36124 6.51101 9.36124 6.10831C9.36124 5.71555 9.43747 5.37086 9.58993 5.07422C9.74239 4.77758 9.957 4.5464 10.2338 4.38068C10.5122 4.21496 10.8386 4.1321 11.2132 4.1321C11.4651 4.1321 11.6995 4.1727 11.9166 4.25391C12.1354 4.33345 12.326 4.4536 12.4884 4.61435C12.6524 4.77509 12.78 4.97727 12.8712 5.22088C12.9623 5.46283 13.0079 5.74621 13.0079 6.07102V6.36186H9.78382V5.70561H12.0111C12.0111 5.55315 11.978 5.41809 11.9117 5.30043C11.8454 5.18277 11.7534 5.09079 11.6357 5.0245C11.5197 4.95656 11.3847 4.92259 11.2306 4.92259C11.0698 4.92259 10.9273 4.95987 10.803 5.03445C10.6804 5.10736 10.5843 5.20597 10.5146 5.33026C10.445 5.45289 10.4094 5.58961 10.4078 5.74041V6.36435C10.4078 6.55327 10.4426 6.7165 10.5122 6.85405C10.5834 6.9916 10.6837 7.09766 10.8129 7.17223C10.9422 7.2468 11.0955 7.28409 11.2728 7.28409C11.3905 7.28409 11.4982 7.26752 11.596 7.23438C11.6937 7.20123 11.7774 7.15152 11.847 7.08523C11.9166 7.01894 11.9697 6.93774 12.0061 6.84162L12.9855 6.90625C12.9358 7.14157 12.8339 7.34706 12.6798 7.52273C12.5273 7.69673 12.3301 7.83262 12.0882 7.9304C11.8479 8.02652 11.5703 8.07457 11.2554 8.07457ZM14.7579 2.90909V8H13.699V2.90909H14.7579ZM17.3462 8.07457C16.9535 8.07457 16.6154 7.99503 16.332 7.83594C16.0503 7.67519 15.8332 7.44815 15.6808 7.15483C15.5283 6.85985 15.4521 6.51101 15.4521 6.10831C15.4521 5.71555 15.5283 5.37086 15.6808 5.07422C15.8332 4.77758 16.0478 4.5464 16.3246 4.38068C16.603 4.21496 16.9295 4.1321 17.304 4.1321C17.5559 4.1321 17.7904 4.1727 18.0075 4.25391C18.2262 4.33345 18.4168 4.4536 18.5792 4.61435C18.7433 4.77509 18.8709 4.97727 18.962 5.22088C19.0531 5.46283 19.0987 5.74621 19.0987 6.07102V6.36186H15.8746V5.70561H18.1019C18.1019 5.55315 18.0688 5.41809 18.0025 5.30043C17.9362 5.18277 17.8442 5.09079 17.7266 5.0245C17.6106 4.95656 17.4755 4.92259 17.3214 4.92259C17.1606 4.92259 17.0181 4.95987 16.8938 5.03445C16.7712 5.10736 16.6751 5.20597 16.6055 5.33026C16.5359 5.45289 16.5002 5.58961 16.4986 5.74041V6.36435C16.4986 6.55327 16.5334 6.7165 16.603 6.85405C16.6742 6.9916 16.7745 7.09766 16.9038 7.17223C17.033 7.2468 17.1863 7.28409 17.3636 7.28409C17.4813 7.28409 17.589 7.26752 17.6868 7.23438C17.7846 7.20123 17.8683 7.15152 17.9379 7.08523C18.0075 7.01894 18.0605 6.93774 18.0969 6.84162L19.0763 6.90625C19.0266 7.14157 18.9247 7.34706 18.7706 7.52273C18.6181 7.69673 18.4209 7.83262 18.179 7.9304C17.9387 8.02652 17.6611 8.07457 17.3462 8.07457ZM21.8207 4.18182V4.97727H19.5213V4.18182H21.8207ZM20.0433 3.26705H21.1023V6.8267C21.1023 6.92448 21.1172 7.00071 21.147 7.0554C21.1768 7.10843 21.2183 7.14571 21.2713 7.16726C21.326 7.1888 21.389 7.19957 21.4602 7.19957C21.5099 7.19957 21.5597 7.19543 21.6094 7.18714C21.6591 7.1772 21.6972 7.16974 21.7237 7.16477L21.8903 7.95277C21.8372 7.96934 21.7627 7.9884 21.6665 8.00994C21.5704 8.03314 21.4536 8.04723 21.3161 8.0522C21.0608 8.06214 20.8371 8.02817 20.6449 7.95028C20.4543 7.8724 20.306 7.75142 20.1999 7.58736C20.0939 7.4233 20.0417 7.21615 20.0433 6.96591V3.26705ZM24.2095 8.07457C23.8168 8.07457 23.4787 7.99503 23.1953 7.83594C22.9136 7.67519 22.6965 7.44815 22.544 7.15483C22.3916 6.85985 22.3153 6.51101 22.3153 6.10831C22.3153 5.71555 22.3916 5.37086 22.544 5.07422C22.6965 4.77758 22.9111 4.5464 23.1879 4.38068C23.4663 4.21496 23.7927 4.1321 24.1673 4.1321C24.4192 4.1321 24.6536 4.1727 24.8707 4.25391C25.0895 4.33345 25.2801 4.4536 25.4425 4.61435C25.6065 4.77509 25.7341 4.97727 25.8253 5.22088C25.9164 5.46283 25.962 5.74621 25.962 6.07102V6.36186H22.7379V5.70561H24.9652C24.9652 5.55315 24.9321 5.41809 24.8658 5.30043C24.7995 5.18277 24.7075 5.09079 24.5898 5.0245C24.4738 4.95656 24.3388 4.92259 24.1847 4.92259C24.0239 4.92259 23.8814 4.95987 23.7571 5.03445C23.6345 5.10736 23.5384 5.20597 23.4688 5.33026C23.3991 5.45289 23.3635 5.58961 23.3619 5.74041V6.36435C23.3619 6.55327 23.3967 6.7165 23.4663 6.85405C23.5375 6.9916 23.6378 7.09766 23.767 7.17223C23.8963 7.2468 24.0496 7.28409 24.2269 7.28409C24.3446 7.28409 24.4523 7.26752 24.5501 7.23438C24.6478 7.20123 24.7315 7.15152 24.8011 7.08523C24.8707 7.01894 24.9238 6.93774 24.9602 6.84162L25.9396 6.90625C25.8899 7.14157 25.788 7.34706 25.6339 7.52273C25.4814 7.69673 25.2842 7.83262 25.0423 7.9304C24.802 8.02652 24.5244 8.07457 24.2095 8.07457Z" fill="white"/>
</g>
</g>
<defs>
<filter id="filter0_d_3_2" x="-11.5575" y="-13.0909" width="61.5195" height="45.1655" filterUnits="userSpaceOnUse" color-interpolation-filters="sRGB">
<feFlood flood-opacity="0" result="BackgroundImageFix"/>
<feColorMatrix in="SourceAlpha" type="matrix" values="0 0 0 0 0 0 0 0 0 0 0 0 0 0 0 0 0 0 127 0" result="hardAlpha"/>
<feOffset dx="4" dy="4"/>
<feGaussianBlur stdDeviation="10"/>
<feComposite in2="hardAlpha" operator="out"/>
<feColorMatrix type="matrix" values="0 0 0 0 0 0 0 0 0 0 0 0 0 0 0 0 0 0 1 0"/>
<feBlend mode="normal" in2="BackgroundImageFix" result="effect1_dropShadow_3_2"/>
<feBlend mode="normal" in="SourceGraphic" in2="effect1_dropShadow_3_2" result="shape"/>
</filter>
<clipPath id="clip0_3_2">
<rect width="33" height="11" fill="white"/>
</clipPath>
</defs>
</svg>
