<svg width="42" height="39" viewBox="0 0 42 39" fill="none" xmlns="http://www.w3.org/2000/svg">
<g id="profits-dollar_svgrepo.com" clip-path="url(#clip0_614_9870)">
<path id="Vector" d="M20.6808 30.4023C27.8299 30.4023 33.6253 25.0207 33.6253 18.3823C33.6253 11.7438 27.8299 6.3623 20.6808 6.3623C13.5317 6.3623 7.73618 11.7438 7.73618 18.3823C7.73618 25.0207 13.5317 30.4023 20.6808 30.4023Z" fill="#FBB608"/>
<g id="Group">
<path id="Vector_2" d="M21.7187 17.4781V14.055C23.1903 14.2946 23.4115 15.052 23.4447 15.4974C23.4533 15.6115 23.5547 15.6998 23.6779 15.6998H25.2852C25.4201 15.6998 25.5264 15.5937 25.5195 15.4686C25.4152 13.5911 24.0292 12.383 21.7188 12.1117V10.9604C21.7188 10.8404 21.614 10.7432 21.4848 10.7432H19.8778C19.7485 10.7432 19.6438 10.8404 19.6438 10.9604V12.1117C17.2398 12.394 15.8368 13.6902 15.8368 15.6998C15.8368 17.7094 17.2398 19.0056 19.6438 19.2879V22.7112C18.1723 22.4716 17.951 21.7141 17.9178 21.2687C17.9093 21.1546 17.8079 21.0663 17.6846 21.0663H16.0774C15.9424 21.0663 15.8362 21.1724 15.8431 21.2975C15.9473 23.1751 17.3333 24.3832 19.6437 24.6545V25.8057C19.6437 25.9258 19.7485 26.023 19.8777 26.023H21.4848C21.614 26.023 21.7187 25.9257 21.7187 25.8057V24.6544C24.1227 24.3721 25.5258 23.0758 25.5258 21.0663C25.5258 19.0567 24.1227 17.7604 21.7187 17.4781ZM19.6437 17.3444C17.9121 17.0624 17.9117 16.0635 17.9117 15.6997C17.9117 15.3359 17.9121 14.3368 19.6437 14.0549V17.3444ZM21.7187 22.711V19.4215C23.4503 19.7034 23.4506 20.7025 23.4506 21.0663C23.4506 21.43 23.4504 22.429 21.7187 22.711Z" fill="white"/>
<path id="Vector_3" d="M41.1046 25.9154C41.1039 25.6122 40.9735 25.3217 40.7421 25.1076C40.5106 24.8938 40.1935 24.7765 39.8706 24.7746L35.0303 24.7845C34.3503 24.7858 33.8003 25.2988 33.8017 25.9302C33.8032 26.5609 34.3542 27.0712 35.033 27.0712C35.0338 27.0712 35.0349 27.0712 35.0357 27.0712L37.1444 27.0669L29.451 33.4593L27.2521 30.0471C28.4954 29.4441 29.6619 28.6586 30.7049 27.6902C36.2319 22.5578 36.2319 14.2071 30.7049 9.07487C25.1779 3.94265 16.1848 3.94265 10.6576 9.07487C10.1769 9.52131 10.1767 10.2453 10.6576 10.6919C11.1386 11.1383 11.9182 11.1384 12.3989 10.6919C16.966 6.45106 24.3969 6.45129 28.9636 10.6919C33.5305 14.9326 33.5305 21.8326 28.9636 26.0733C28.0666 26.9062 27.0582 27.5729 25.9837 28.0787L25.8172 27.8204C25.6223 27.518 25.2884 27.316 24.9118 27.2727C24.5351 27.2297 24.1582 27.3498 23.8899 27.599L22.2097 29.1592C18.7239 29.5817 15.0712 28.5549 12.399 26.0734C11.9182 25.6271 11.1385 25.6271 10.6577 26.0734C10.1769 26.5199 10.1769 27.2439 10.6577 27.6905C13.1673 30.0207 16.3915 31.2928 19.6814 31.507L16.8809 34.1074C16.8222 34.0852 16.7617 34.0658 16.6982 34.052C8.83721 32.3355 3.34728 25.8922 3.34728 18.3824C3.34728 14.0829 5.1504 10.041 8.42426 7.00102C11.6981 3.96101 16.0511 2.28668 20.6813 2.28668C30.2391 2.28668 38.0153 9.50722 38.0153 18.3824C38.0153 19.0138 38.5665 19.5257 39.2465 19.5257C39.9266 19.5257 40.4778 19.0138 40.4778 18.3824C40.4778 8.24635 31.5971 0 20.6813 0C15.3934 0 10.422 1.91214 6.68291 5.38412C2.94385 8.85611 0.884705 13.4723 0.884705 18.3824C0.884705 22.5502 2.42853 26.6324 5.23161 29.8771C7.71954 32.7569 11.1109 34.8872 14.8828 35.9623L13.7135 37.0481C13.2327 37.4945 13.2327 38.2186 13.7135 38.6651C13.9539 38.8883 14.2691 39 14.5841 39C14.8992 39 15.2145 38.8883 15.4548 38.6651L23.3873 31.2993C23.9147 31.2047 24.4371 31.0816 24.9521 30.9314L28.1039 35.822C28.2925 36.1148 28.6121 36.3141 28.9755 36.3654C29.3386 36.4166 29.7076 36.3146 29.9816 36.087L38.6493 28.8852L38.6529 30.4151C38.6544 31.0458 39.2054 31.556 39.8842 31.556C39.885 31.556 39.8861 31.556 39.8869 31.556C40.5669 31.5547 41.1169 31.0417 41.1155 30.4103L41.1046 25.9154Z" fill="black"/>
</g>
</g>
<defs>
<clipPath id="clip0_614_9870">
<rect width="42" height="39" fill="white"/>
</clipPath>
</defs>
</svg>
