<svg width="26" height="26" viewBox="0 0 26 26" fill="none" xmlns="http://www.w3.org/2000/svg">
<g id="ri:lock-password-fill">
<path id="Vector" d="M19.5 8.66634H21.6667C21.954 8.66634 22.2295 8.78048 22.4327 8.98364C22.6359 9.18681 22.75 9.46236 22.75 9.74967V22.7497C22.75 23.037 22.6359 23.3125 22.4327 23.5157C22.2295 23.7189 21.954 23.833 21.6667 23.833H4.33333C4.04602 23.833 3.77047 23.7189 3.5673 23.5157C3.36414 23.3125 3.25 23.037 3.25 22.7497V9.74967C3.25 9.46236 3.36414 9.18681 3.5673 8.98364C3.77047 8.78048 4.04602 8.66634 4.33333 8.66634H6.5V7.58301C6.5 5.8591 7.18482 4.2058 8.40381 2.98681C9.62279 1.76783 11.2761 1.08301 13 1.08301C14.7239 1.08301 16.3772 1.76783 17.5962 2.98681C18.8152 4.2058 19.5 5.8591 19.5 7.58301V8.66634ZM17.3333 8.66634V7.58301C17.3333 6.43374 16.8768 5.33154 16.0641 4.51888C15.2515 3.70622 14.1493 3.24967 13 3.24967C11.8507 3.24967 10.7485 3.70622 9.93587 4.51888C9.12321 5.33154 8.66667 6.43374 8.66667 7.58301V8.66634H17.3333ZM11.9167 15.1663V17.333H14.0833V15.1663H11.9167ZM7.58333 15.1663V17.333H9.75V15.1663H7.58333ZM16.25 15.1663V17.333H18.4167V15.1663H16.25Z" fill="#111111" fill-opacity="0.7"/>
</g>
</svg>
