<svg width="23" height="25" viewBox="0 0 23 25" fill="none" xmlns="http://www.w3.org/2000/svg">
<g id="user-person-profile-check_svgrepo.com">
<path id="Vector" fill-rule="evenodd" clip-rule="evenodd" d="M21.0833 17.5C21.0833 20.2614 18.938 22.5 16.2917 22.5C13.6453 22.5 11.5 20.2614 11.5 17.5C11.5 14.7386 13.6453 12.5 16.2917 12.5C18.938 12.5 21.0833 14.7386 21.0833 17.5ZM18.7165 17.0303L16.3207 19.5303C16.04 19.8232 15.5845 19.8227 15.3038 19.5298L14.346 18.5303C14.0653 18.2374 14.0653 17.7626 14.346 17.4697C14.6267 17.1768 15.0817 17.1768 15.3624 17.4697L15.8125 17.9393L17.7001 15.9697C17.9808 15.6768 18.4358 15.6768 18.7165 15.9697C18.9972 16.2626 18.9972 16.7374 18.7165 17.0303Z" fill="#30AFBC"/>
<path id="Vector_2" d="M9.58329 2.5C6.93693 2.5 4.79163 4.73858 4.79163 7.5C4.79163 10.2614 6.93693 12.5 9.58329 12.5C12.2296 12.5 14.375 10.2614 14.375 7.5C14.375 4.73858 12.2296 2.5 9.58329 2.5Z" fill="black"/>
<path id="Vector_3" d="M3.39768 22.5C2.57972 22.5 1.91663 21.8081 1.91663 20.9545C1.91663 17.3898 4.68602 14.5 8.10224 14.5H9.14768C9.50229 14.5 9.8499 14.5311 10.1882 14.5909C9.79978 15.4769 9.58329 16.4621 9.58329 17.5C9.58329 19.4587 10.3543 21.2295 11.5968 22.5H3.39768Z" fill="#30AFBC"/>
</g>
</svg>
