<svg width="15" height="15" viewBox="0 0 15 15" fill="none" xmlns="http://www.w3.org/2000/svg">
<g id="Selections">
<rect y="0.5" width="15" height="14" rx="7" fill="black"/>
<path id="Vector" d="M7.5 1.08325C11.297 1.08325 14.375 3.9561 14.375 7.49992C14.375 11.0437 11.297 13.9166 7.5 13.9166C3.70304 13.9166 0.625 11.0437 0.625 7.49992C0.625 3.9561 3.70304 1.08325 7.5 1.08325ZM10.3129 3.99944H7.18745L4.6875 7.79158H6.87499L4.99966 11.5833L10 6.91658H7.5L10.3129 3.99944ZM3.59374 4.2916L5.39062 5.96869L5.85937 5.38535L4.6875 4.2916H3.59374ZM8.4375 8.95826L10.625 10.9999L11.25 10.4166L9.06251 8.37492L8.4375 8.95826Z" fill="white"/>
</g>
</svg>
