<svg width="30" height="29" viewBox="0 0 30 29" fill="none" xmlns="http://www.w3.org/2000/svg">
<g id="Shopicon">
<path id="Vector" d="M16.2455 11.4557C16.8006 11.6139 17.3893 11.7 17.9991 11.7C21.3129 11.7 23.9995 9.1926 23.9995 6.1C23.9995 3.0074 21.3129 0.5 17.9991 0.5C16.34 0.5 14.8384 1.1286 13.7523 2.1443C13.1973 1.9861 12.6093 1.9 11.9987 1.9C8.685 1.9 5.99832 4.4074 5.99832 7.5C5.99832 10.5926 8.685 13.1 11.9987 13.1C13.6578 13.1 15.1594 12.4714 16.2455 11.4557ZM17.9991 3.3C19.6537 3.3 20.9993 4.5558 20.9993 6.1C20.9993 7.6442 19.6537 8.9 17.9991 8.9C16.3445 8.9 14.9989 7.6442 14.9989 6.1C14.9989 4.5558 16.3453 3.3 17.9991 3.3ZM8.99852 7.5C8.99852 5.9558 10.3441 4.7 11.9987 4.7C12.0647 4.7 12.1255 4.714 12.1907 4.7182C12.07 5.1606 11.9987 5.6219 11.9987 6.1C11.9987 7.5553 12.5988 8.8769 13.5738 9.8723C13.1148 10.139 12.5785 10.3 11.9987 10.3C10.3449 10.3 8.99852 9.0442 8.99852 7.5Z" fill="#FBB608"/>
<path id="Vector_2" d="M19.4993 14.5C15.035 14.5 11.389 15.8391 9.82364 17.8439C9.03608 17.2041 8.42704 16.5748 8.09852 16.1786C6.60892 14.3285 3.78273 13.9519 1.79809 15.34C-0.186541 16.7288 -0.590818 19.3671 0.898783 21.22C1.1373 21.5175 6.84668 28.5 14.999 28.5H30V20.1C30 16.9073 25.4854 14.5 19.4993 14.5ZM3.29819 19.54C2.80166 18.9226 2.93667 18.0427 3.59596 17.58C3.86598 17.391 4.18325 17.3007 4.49678 17.3007C4.95281 17.3007 5.40209 17.4925 5.69386 17.8544C5.73361 17.9048 9.76813 22.9 14.999 22.9H20.9994V21.5V20.1H14.999C14.0772 20.1 13.1539 19.8305 12.2913 19.4266C13.1374 18.4011 15.7678 17.3 19.4993 17.3C24.0776 17.3 26.9998 18.9583 26.9998 20.1V25.7H25.4997H14.999C8.32878 25.7 3.49996 19.7913 3.29819 19.54Z" fill="black"/>
</g>
</svg>
