<svg width="12" height="12" viewBox="0 0 12 12" fill="none" xmlns="http://www.w3.org/2000/svg">
<g id="thunder_svgrepo.com" clip-path="url(#clip0_88_241)">
<g id="Group">
<g id="Group_2">
<path id="Vector" d="M4.61464 5.15713L7.04014 5.65213L3.3501 9.90455L4.11276 10.4018L8.80885 5.15713L5.95114 4.53746L7.29314 1.87409L6.63589 1.50146L4.61464 5.15713Z" fill="#D8D8D8"/>
<g id="Mask group">
<mask id="mask0_88_241" style="mask-type:luminance" maskUnits="userSpaceOnUse" x="3" y="1" width="6" height="10">
<g id="Group_3">
<path id="Vector_2" d="M4.61464 5.15713L7.04014 5.65213L3.3501 9.90455L4.11276 10.4018L8.80885 5.15713L5.95114 4.53746L7.29314 1.87409L6.63589 1.50146L4.61464 5.15713Z" fill="#FFA0A0"/>
</g>
</mask>
<g mask="url(#mask0_88_241)">
<g id="Group_4">
<path id="Vector_3" d="M11.5002 0.5H0.500244V11.5H11.5002V0.5Z" fill="#30AFBC"/>
</g>
</g>
</g>
</g>
<path id="Vector_4" d="M7.03485 4.11422L8.46057 4.38138C9.16027 4.5125 9.45001 5.35635 8.97841 5.88962L4.69581 10.7323C3.99648 11.5231 2.73461 10.6998 3.17673 9.74118L4.58687 6.68362L3.53893 6.48648C2.91743 6.36956 2.59821 5.67328 2.91524 5.12608L4.79946 1.87388C4.96338 1.59094 5.26562 1.41675 5.59262 1.41675H7.00611C7.71212 1.41675 8.15311 2.18135 7.79955 2.79246L7.03485 4.11422ZM7.00611 2.33341H5.59262L3.70841 5.58561L5.91158 6.00008L4.00913 10.1251L8.29174 5.28237L5.59262 4.77659L7.00611 2.33341Z" fill="black"/>
<g id="Mask group_2">
<mask id="mask1_88_241" style="mask-type:luminance" maskUnits="userSpaceOnUse" x="2" y="1" width="8" height="11">
<g id="Group_5">
<path id="Vector_5" d="M7.03485 4.11422L8.46057 4.38138C9.16027 4.5125 9.45001 5.35635 8.97841 5.88962L4.69581 10.7323C3.99648 11.5231 2.73461 10.6998 3.17673 9.74118L4.58687 6.68362L3.53893 6.48648C2.91743 6.36956 2.59821 5.67328 2.91524 5.12608L4.79946 1.87388C4.96338 1.59094 5.26562 1.41675 5.59262 1.41675H7.00611C7.71212 1.41675 8.15311 2.18135 7.79955 2.79246L7.03485 4.11422ZM7.00611 2.33341H5.59262L3.70841 5.58561L5.91158 6.00008L4.00913 10.1251L8.29174 5.28237L5.59262 4.77659L7.00611 2.33341Z" fill="#30AFBC"/>
</g>
</mask>
<g mask="url(#mask1_88_241)">
<g id="Group_6">
<path id="Vector_6" d="M11.5 0.5H0.5V11.5H11.5V0.5Z" fill="black"/>
</g>
</g>
</g>
</g>
</g>
<defs>
<clipPath id="clip0_88_241">
<rect width="11" height="11" fill="white" transform="translate(0.5 0.5)"/>
</clipPath>
</defs>
</svg>
