<svg width="33" height="11" viewBox="0 0 33 11" fill="none" xmlns="http://www.w3.org/2000/svg">
<g clip-path="url(#clip0_3_2)">
<rect width="33" height="11" fill="white"/>
<path d="M2.00002 -9.5L22.188 -1.74113L7.25741 21.25L-10.5 7L-2.5 -0.5L2.00002 -9.5Z" fill="#232323" fill-opacity="0.94"/>
<path d="M25.1375 -7L42.357 4.18245L37.1375 4.78825L33.6735 7.74243L31.1735 9.74243L29.3231 11.2424L29 12.5L28.2195 25.9523L11 14.7699L25.1375 -7Z" fill="#0795B5"/>
<g filter="url(#filter0_d_3_2)">
<path d="M8.094 7.054C7.758 7.054 7.454 6.986 7.182 6.85C6.914 6.714 6.704 6.526 6.552 6.286C6.4 6.046 6.324 5.774 6.324 5.47V3.34C6.324 3.148 6.392 3.002 6.528 2.902C6.664 2.798 6.864 2.746 7.128 2.746V5.47C7.128 5.738 7.216 5.952 7.392 6.112C7.568 6.272 7.802 6.352 8.094 6.352C8.386 6.352 8.62 6.272 8.796 6.112C8.972 5.952 9.06 5.738 9.06 5.47V3.34C9.06 3.144 9.128 2.996 9.264 2.896C9.4 2.796 9.6 2.746 9.864 2.746V5.47C9.864 5.774 9.788 6.046 9.636 6.286C9.484 6.526 9.272 6.714 9 6.85C8.732 6.986 8.43 7.054 8.094 7.054ZM10.7176 4.462C10.7176 4.314 10.7756 4.192 10.8916 4.096C11.0076 3.996 11.1796 3.946 11.4076 3.946V4.27C11.3396 4.362 11.3016 4.416 11.2936 4.432L11.3176 4.456C11.4456 4.288 11.5856 4.162 11.7376 4.078C11.8936 3.99 12.0856 3.946 12.3136 3.946C12.5336 3.946 12.7276 3.992 12.8956 4.084C13.0676 4.172 13.2016 4.298 13.2976 4.462C13.3936 4.626 13.4416 4.814 13.4416 5.026V5.974C13.4416 6.19 13.3876 6.38 13.2796 6.544C13.1756 6.708 13.0316 6.834 12.8476 6.922C12.6636 7.01 12.4556 7.054 12.2236 7.054C12.0756 7.054 11.9216 7.024 11.7616 6.964C11.6056 6.9 11.4736 6.814 11.3656 6.706L11.3416 6.736C11.3696 6.776 11.4136 6.818 11.4736 6.862V7.75C11.4736 8.086 11.2216 8.254 10.7176 8.254V4.462ZM12.0796 6.406C12.2756 6.406 12.4276 6.364 12.5356 6.28C12.6436 6.196 12.6976 6.078 12.6976 5.926V5.074C12.6976 4.918 12.6436 4.8 12.5356 4.72C12.4316 4.636 12.2796 4.594 12.0796 4.594C11.8996 4.594 11.7516 4.638 11.6356 4.726C11.5196 4.81 11.4616 4.916 11.4616 5.044V5.956C11.4616 6.08 11.5176 6.186 11.6296 6.274C11.7456 6.362 11.8956 6.406 12.0796 6.406ZM15.3239 7.054C15.1079 7.054 14.9139 7.008 14.7419 6.916C14.5699 6.824 14.4339 6.698 14.3339 6.538C14.2339 6.374 14.1839 6.186 14.1839 5.974V5.026C14.1839 4.818 14.2359 4.632 14.3399 4.468C14.4439 4.304 14.5879 4.176 14.7719 4.084C14.9599 3.992 15.1679 3.946 15.3959 3.946C15.5439 3.946 15.6959 3.978 15.8519 4.042C16.0119 4.102 16.1459 4.184 16.2539 4.288L16.2779 4.258C16.2579 4.226 16.2139 4.186 16.1459 4.138V3.25C16.1459 3.09 16.2079 2.966 16.3319 2.878C16.4599 2.79 16.6519 2.746 16.9079 2.746V6.538C16.9079 6.686 16.8519 6.81 16.7399 6.91C16.6279 7.006 16.4539 7.054 16.2179 7.054V6.724C16.2699 6.66 16.3079 6.608 16.3319 6.568L16.3019 6.544C16.1779 6.712 16.0399 6.84 15.8879 6.928C15.7399 7.012 15.5519 7.054 15.3239 7.054ZM15.5459 6.406C15.7259 6.406 15.8719 6.364 15.9839 6.28C16.0999 6.192 16.1579 6.082 16.1579 5.95V5.044C16.1579 4.916 16.0999 4.81 15.9839 4.726C15.8719 4.638 15.7239 4.594 15.5399 4.594C15.3439 4.594 15.1919 4.636 15.0839 4.72C14.9799 4.8 14.9279 4.916 14.9279 5.068V5.92C14.9279 6.08 14.9799 6.202 15.0839 6.286C15.1919 6.366 15.3459 6.406 15.5459 6.406ZM18.7884 7.054C18.5844 7.054 18.3964 7.014 18.2244 6.934C18.0564 6.854 17.9204 6.74 17.8164 6.592C17.7164 6.44 17.6664 6.26 17.6664 6.052C17.6664 5.844 17.7204 5.664 17.8284 5.512C17.9364 5.356 18.0824 5.238 18.2664 5.158C18.4544 5.074 18.6604 5.032 18.8844 5.032C19.0684 5.032 19.2324 5.062 19.3764 5.122C19.5244 5.178 19.6604 5.264 19.7844 5.38L19.8144 5.35C19.7784 5.314 19.7164 5.26 19.6284 5.188V5.068C19.6284 4.904 19.5704 4.774 19.4544 4.678C19.3384 4.582 19.1764 4.534 18.9684 4.534C18.5964 4.534 18.3224 4.67 18.1464 4.942C18.0584 4.914 17.9844 4.87 17.9244 4.81C17.8644 4.746 17.8344 4.678 17.8344 4.606C17.8344 4.486 17.8884 4.376 17.9964 4.276C18.1044 4.176 18.2504 4.096 18.4344 4.036C18.6184 3.976 18.8184 3.946 19.0344 3.946C19.4584 3.946 19.7864 4.046 20.0184 4.246C20.2504 4.442 20.3664 4.71 20.3664 5.05V6.55C20.3664 6.726 20.3104 6.854 20.1984 6.934C20.0864 7.014 19.9104 7.054 19.6704 7.054V6.808C19.7384 6.74 19.7844 6.69 19.8084 6.658L19.7844 6.628C19.6524 6.768 19.5104 6.874 19.3584 6.946C19.2104 7.018 19.0204 7.054 18.7884 7.054ZM18.9804 6.508C19.1884 6.508 19.3504 6.468 19.4664 6.388C19.5824 6.308 19.6404 6.194 19.6404 6.046C19.6404 5.902 19.5804 5.788 19.4604 5.704C19.3444 5.62 19.1864 5.578 18.9864 5.578C18.8024 5.578 18.6564 5.62 18.5484 5.704C18.4444 5.784 18.3924 5.898 18.3924 6.046C18.3924 6.198 18.4444 6.314 18.5484 6.394C18.6524 6.47 18.7964 6.508 18.9804 6.508ZM22.377 7.054C22.053 7.054 21.813 6.96 21.657 6.772C21.501 6.584 21.423 6.342 21.423 6.046V4.558H20.805C20.805 4.37 20.841 4.23 20.913 4.138C20.985 4.046 21.081 4 21.201 4H21.435V3.502C21.435 3.338 21.495 3.222 21.615 3.154C21.735 3.082 21.917 3.046 22.161 3.046V4H22.959C22.959 4.2 22.921 4.344 22.845 4.432C22.769 4.516 22.647 4.558 22.479 4.558H22.173V6.016C22.173 6.156 22.199 6.256 22.251 6.316C22.307 6.376 22.401 6.406 22.533 6.406C22.673 6.406 22.813 6.368 22.953 6.292C22.993 6.328 23.025 6.374 23.049 6.43C23.073 6.482 23.085 6.536 23.085 6.592C23.085 6.712 23.023 6.82 22.899 6.916C22.775 7.008 22.601 7.054 22.377 7.054ZM24.98 7.054C24.732 7.054 24.506 7.006 24.302 6.91C24.098 6.81 23.936 6.676 23.816 6.508C23.696 6.336 23.636 6.144 23.636 5.932V5.134C23.636 4.91 23.698 4.708 23.822 4.528C23.946 4.348 24.11 4.206 24.314 4.102C24.522 3.998 24.746 3.946 24.986 3.946C25.222 3.946 25.438 3.996 25.634 4.096C25.834 4.192 25.992 4.328 26.108 4.504C26.224 4.676 26.282 4.874 26.282 5.098V5.434C26.282 5.522 26.248 5.596 26.18 5.656C26.116 5.716 26.034 5.746 25.934 5.746H24.362V5.878C24.362 6.05 24.414 6.19 24.518 6.298C24.622 6.406 24.778 6.46 24.986 6.46C25.186 6.46 25.334 6.416 25.43 6.328C25.53 6.24 25.58 6.126 25.58 5.986C25.652 5.978 25.702 5.974 25.73 5.974C25.878 5.974 25.994 6.008 26.078 6.076C26.162 6.14 26.204 6.232 26.204 6.352C26.204 6.468 26.15 6.58 26.042 6.688C25.934 6.796 25.786 6.884 25.598 6.952C25.41 7.02 25.204 7.054 24.98 7.054ZM25.604 5.212V5.098C25.604 4.93 25.546 4.794 25.43 4.69C25.314 4.586 25.164 4.534 24.98 4.534C24.796 4.534 24.646 4.586 24.53 4.69C24.418 4.79 24.362 4.926 24.362 5.098V5.212H25.604Z" fill="white"/>
</g>
</g>
<defs>
<filter id="filter0_d_3_2" x="-9.67599" y="-13.254" width="59.958" height="45.508" filterUnits="userSpaceOnUse" color-interpolation-filters="sRGB">
<feFlood flood-opacity="0" result="BackgroundImageFix"/>
<feColorMatrix in="SourceAlpha" type="matrix" values="0 0 0 0 0 0 0 0 0 0 0 0 0 0 0 0 0 0 127 0" result="hardAlpha"/>
<feOffset dx="4" dy="4"/>
<feGaussianBlur stdDeviation="10"/>
<feComposite in2="hardAlpha" operator="out"/>
<feColorMatrix type="matrix" values="0 0 0 0 0 0 0 0 0 0 0 0 0 0 0 0 0 0 1 0"/>
<feBlend mode="normal" in2="BackgroundImageFix" result="effect1_dropShadow_3_2"/>
<feBlend mode="normal" in="SourceGraphic" in2="effect1_dropShadow_3_2" result="shape"/>
</filter>
<clipPath id="clip0_3_2">
<rect width="33" height="11" fill="white"/>
</clipPath>
</defs>
</svg>
