<svg width="17" height="17" viewBox="0 0 17 17" fill="none" xmlns="http://www.w3.org/2000/svg">
<g id="filter">
<path id="Vector" d="M3.54175 2.625H12.2513L6.34762 8.5287C6.25114 8.40884 6.14219 8.29668 6.0211 8.19157C5.82049 8.01741 5.55337 7.86714 5.15466 7.64284C5.13702 7.63292 5.11913 7.62286 5.10098 7.61264L3.03762 6.4511L2.79235 6.88681L3.03762 6.4511C2.69347 6.25737 2.46578 6.1286 2.29874 6.01256C2.13962 5.90203 2.0709 5.82632 2.02872 5.75642C1.98757 5.68823 1.95552 5.59899 1.93707 5.42093C1.91736 5.23071 1.91675 4.9851 1.91675 4.60734V4.11872C1.91675 3.63376 1.91795 3.3236 1.95059 3.09582C1.98068 2.88587 2.02829 2.8208 2.07006 2.78161C2.11634 2.73819 2.19902 2.68777 2.43847 2.65757C2.68922 2.62594 3.0276 2.625 3.54175 2.625Z" stroke="black"/>
<path id="Vector_2" opacity="0.5" d="M6.81773 9.51542L6.81773 9.51543C6.87497 9.77209 6.87488 10.0605 6.87476 10.4746C6.87475 10.4944 6.87474 10.5146 6.87474 10.535V12.4259C6.87474 12.7596 6.87552 12.9674 6.89372 13.1245C6.9103 13.2675 6.93697 13.3203 6.96075 13.3538C6.98619 13.3896 7.03346 13.438 7.17643 13.5118C7.32868 13.5904 7.53776 13.6728 7.86451 13.8006C8.54431 14.0663 9.00459 14.245 9.35415 14.328C9.69621 14.4093 9.81813 14.3695 9.88648 14.3267C9.94566 14.2897 10.0226 14.2178 10.0717 13.9066C10.1232 13.5796 10.1247 13.1197 10.1247 12.4259V10.535C10.1247 10.5145 10.1247 10.4944 10.1247 10.4746C10.1246 10.0606 10.1245 9.77217 10.1818 9.51551L6.81773 9.51542ZM6.81773 9.51542C6.81513 9.50375 6.81245 9.49211 6.8097 9.4805L13.665 2.62514C14.0658 2.62587 14.3459 2.63039 14.5613 2.65757C14.8007 2.68776 14.8835 2.73816 14.9298 2.7816C14.9715 2.82078 15.0191 2.88585 15.0492 3.09581C15.0819 3.3236 15.0831 3.63376 15.0831 4.11872V4.60734M6.81773 9.51542L15.0831 4.60734M15.0831 4.60734C15.0831 4.9851 15.0825 5.23071 15.0627 5.42094C15.0443 5.59899 15.0122 5.68823 14.9711 5.75642C14.9289 5.82631 14.8602 5.90203 14.7011 6.01256C14.534 6.1286 14.3063 6.25737 13.9622 6.4511C13.9622 6.4511 13.9622 6.4511 13.9622 6.45111L11.8989 7.61263L15.0831 4.60734ZM11.8455 7.64264C11.4466 7.86703 11.1794 8.01733 10.9787 8.19155L11.8988 7.61266C11.8808 7.6228 11.863 7.6328 11.8455 7.64264ZM10.9787 8.1916C10.5647 8.55097 10.2996 8.98681 10.1818 9.51537L10.9787 8.1916Z" stroke="#757575"/>
</g>
</svg>
