<svg width="28" height="22" viewBox="0 0 28 22" fill="none" xmlns="http://www.w3.org/2000/svg">
<g id="project-management-icon 1">
<g id="Vector">
<mask id="path-1-inside-1_124_5" fill="white">
<path fill-rule="evenodd" clip-rule="evenodd" d="M20.0156 10.7255C19.9413 10.7263 19.8685 10.7485 19.804 10.7899C19.7762 10.8111 19.7536 10.8398 19.7383 10.8735C19.7233 10.9159 19.716 10.9614 19.7172 11.0072C19.7402 11.2192 19.8133 11.4203 19.9288 11.5896L20.3733 12.3869C20.5374 12.7101 20.738 13.0078 20.9701 13.2726C21.1976 13.5195 21.5011 13.6572 21.8167 13.6569C21.983 13.6608 22.1482 13.6272 22.3027 13.5579C22.4572 13.4886 22.5978 13.3851 22.7162 13.2535C22.9586 12.9678 23.1658 12.6467 23.3321 12.2986L23.8316 11.37C23.908 11.2201 23.9448 11.0486 23.9374 10.8759C23.9247 10.8186 23.8697 10.7923 23.7766 10.7852H23.7152H23.6454H23.6052C23.5601 10.7898 23.5148 10.7898 23.4697 10.7852L23.6411 9.93055C22.3713 10.1693 21.4188 9.09266 20.0749 9.7181L20.168 10.7422C20.1173 10.7482 20.0663 10.7482 20.0156 10.7422V10.7255ZM16.6292 17.3498C16.7478 15.6263 16.4472 15.6024 17.7298 15.0605C18.4368 14.7889 19.1204 14.4454 19.7722 14.0341L20.8707 17.3498H16.6292ZM27 17.3498C26.8836 15.6263 27.182 15.6024 25.9015 15.0605C25.194 14.7885 24.5097 14.445 23.857 14.0341L22.7586 17.3498H27ZM22.1321 15.5428H22.2845C22.3511 15.5421 22.4148 15.512 22.462 15.4589C22.5091 15.4057 22.5358 15.3338 22.5363 15.2587V14.8003C22.5363 14.725 22.5098 14.6528 22.4626 14.5995C22.4153 14.5462 22.3513 14.5163 22.2845 14.5163H21.3744C21.3076 14.5163 21.2435 14.5462 21.1963 14.5995C21.1491 14.6528 21.1225 14.725 21.1225 14.8003V15.2611C21.1231 15.3362 21.1498 15.4081 21.1969 15.4612C21.244 15.5144 21.3078 15.5445 21.3744 15.5451H21.5352L21.2389 17.3522H22.4242L22.1384 15.5451L22.1321 15.5428ZM8.05324 15.6454L8.22679 15.8388C8.24825 15.8637 8.26026 15.8971 8.26026 15.9319C8.26026 15.9666 8.24825 16 8.22679 16.025L8.0871 16.1825C8.12599 16.2646 8.15516 16.3521 8.17388 16.4427H8.35378C8.38465 16.4427 8.41426 16.4565 8.43609 16.4812C8.45792 16.5058 8.47019 16.5392 8.47019 16.574V16.8485C8.47019 16.8833 8.45792 16.9167 8.43609 16.9414C8.41426 16.966 8.38465 16.9798 8.35378 16.9798H8.15695C8.13263 17.0679 8.0985 17.1521 8.05536 17.2305L8.18234 17.3761C8.20381 17.401 8.21581 17.4344 8.21581 17.4692C8.21581 17.5039 8.20381 17.5373 8.18234 17.5623L8.00879 17.7556C7.98703 17.7797 7.95778 17.7932 7.92731 17.7932C7.89684 17.7932 7.86758 17.7797 7.84582 17.7556L7.70614 17.5981C7.63336 17.6419 7.5558 17.6748 7.47544 17.696V17.9036C7.47544 17.9385 7.46317 17.9719 7.44134 17.9965C7.41951 18.0211 7.3899 18.0349 7.35903 18.0349H7.11564C7.08476 18.0349 7.05516 18.0211 7.03332 17.9965C7.01149 17.9719 6.99923 17.9385 6.99923 17.9036V17.6816C6.9203 17.6548 6.84486 17.6162 6.77488 17.5671L6.64789 17.7103C6.63723 17.7228 6.62441 17.7328 6.61023 17.7397C6.59604 17.7465 6.58078 17.75 6.56535 17.75C6.54993 17.75 6.53466 17.7465 6.52048 17.7397C6.50629 17.7328 6.49348 17.7228 6.48281 17.7103L6.31137 17.5169C6.30023 17.5049 6.29137 17.4904 6.28531 17.4744C6.27926 17.4584 6.27613 17.4412 6.27613 17.4238C6.27613 17.4064 6.27926 17.3892 6.28531 17.3732C6.29137 17.3572 6.30023 17.3428 6.31137 17.3307L6.44894 17.1732C6.40984 17.0915 6.38133 17.0038 6.36428 16.913H6.18438C6.16902 16.9133 6.15375 16.9101 6.1395 16.9036C6.12525 16.8972 6.1123 16.8875 6.10143 16.8752C6.09056 16.863 6.082 16.8484 6.07625 16.8323C6.0705 16.8162 6.06769 16.799 6.06798 16.7817V16.5024C6.06798 16.4676 6.08024 16.4342 6.10207 16.4095C6.1239 16.3849 6.15351 16.3711 6.18438 16.3711H6.38122C6.40509 16.2866 6.43928 16.2062 6.48281 16.1324L6.35582 15.9891C6.34468 15.9771 6.33581 15.9627 6.32976 15.9467C6.3237 15.9307 6.32058 15.9134 6.32058 15.896C6.32058 15.8787 6.3237 15.8614 6.32976 15.8454C6.33581 15.8294 6.34468 15.815 6.35582 15.8029L6.52725 15.6072C6.54937 15.583 6.57898 15.5695 6.6098 15.5695C6.64062 15.5695 6.67022 15.583 6.69234 15.6072L6.83203 15.7648C6.9048 15.7209 6.98236 15.688 7.06272 15.6669V15.464C7.06272 15.4292 7.07499 15.3958 7.09682 15.3711C7.11865 15.3465 7.14826 15.3327 7.17913 15.3327H7.42253C7.4534 15.3327 7.48301 15.3465 7.50484 15.3711C7.52667 15.3958 7.53893 15.4292 7.53893 15.464V15.686C7.61753 15.7119 7.69239 15.7504 7.76116 15.8006L7.88815 15.6573C7.89882 15.6448 7.91163 15.6348 7.92582 15.6279C7.94001 15.6211 7.95527 15.6176 7.9707 15.6176C7.98612 15.6176 8.00139 15.6211 8.01557 15.6279C8.02976 15.6348 8.04257 15.6448 8.05324 15.6573V15.6454ZM7.26802 16.1228C7.36305 16.1228 7.45593 16.1546 7.53494 16.2142C7.61395 16.2737 7.67553 16.3583 7.71189 16.4573C7.74826 16.5564 7.75777 16.6653 7.73923 16.7704C7.7207 16.8755 7.67494 16.9721 7.60775 17.0479C7.54056 17.1237 7.45495 17.1753 7.36175 17.1962C7.26856 17.2171 7.17196 17.2064 7.08417 17.1653C6.99638 17.1243 6.92134 17.0549 6.86855 16.9658C6.81576 16.8767 6.78758 16.7719 6.78758 16.6647C6.78758 16.521 6.8382 16.3832 6.9283 16.2815C7.0184 16.1799 7.1406 16.1228 7.26802 16.1228ZM10.1972 12.375C10.0787 12.3605 9.96989 12.2946 9.89366 12.1913C9.81744 12.0879 9.77982 11.9552 9.78876 11.8212C9.78294 11.7545 9.78892 11.6871 9.80636 11.6231C9.8238 11.559 9.85235 11.4995 9.89035 11.448C9.92835 11.3964 9.97505 11.3539 10.0277 11.3229C10.0804 11.2919 10.138 11.273 10.1972 11.2674H15.4228C15.5415 11.2819 15.6506 11.3476 15.7271 11.4509C15.8037 11.5542 15.8418 11.6869 15.8334 11.8212C15.839 11.888 15.8327 11.9554 15.815 12.0195C15.7973 12.0836 15.7686 12.1431 15.7304 12.1945C15.6922 12.246 15.6454 12.2885 15.5926 12.3195C15.5398 12.3504 15.4821 12.3693 15.4228 12.375H10.1972ZM10.1972 17.2185C10.079 17.2035 9.97042 17.1374 9.8943 17.0342C9.81817 16.931 9.78036 16.7986 9.78876 16.6647C9.78293 16.5979 9.78889 16.5304 9.80631 16.4662C9.82373 16.402 9.85225 16.3423 9.89023 16.2906C9.9282 16.2389 9.97489 16.1962 10.0276 16.1649C10.0803 16.1337 10.1379 16.1145 10.1972 16.1085H13.7635C13.8822 16.1236 13.991 16.1899 14.0672 16.2937C14.1434 16.3974 14.181 16.5304 14.172 16.6647C14.1778 16.7314 14.1718 16.7987 14.1544 16.8628C14.1369 16.9269 14.1084 16.9864 14.0704 17.0379C14.0324 17.0895 13.9857 17.132 13.933 17.163C13.8803 17.194 13.8227 17.2128 13.7635 17.2185H10.1972ZM7.25532 8.26671C7.19779 8.31227 7.12723 8.3319 7.05751 8.32174C6.98779 8.31157 6.92397 8.27236 6.87859 8.21181L6.84684 8.17361L6.32196 7.56489C6.29699 7.53011 6.27843 7.49006 6.26735 7.4471C6.25627 7.40413 6.2529 7.3591 6.25743 7.31464C6.26196 7.27019 6.27431 7.2272 6.29375 7.18819C6.31318 7.14918 6.33932 7.11494 6.37063 7.08746C6.43244 7.02247 6.51304 6.98497 6.59749 6.9819C6.68194 6.97883 6.76452 7.01039 6.82991 7.07075L7.10717 7.40017L8.02572 6.56944C8.05873 6.54483 8.09591 6.52821 8.13491 6.52065C8.17391 6.51308 8.21388 6.51474 8.25228 6.52551C8.29069 6.53629 8.32669 6.55594 8.358 6.58323C8.38932 6.61051 8.41527 6.64484 8.43421 6.68403C8.48966 6.75588 8.51841 6.84908 8.51447 6.94424C8.51052 7.0394 8.47419 7.12917 8.41304 7.19488L7.26591 8.26671H7.25532ZM10.1718 7.78928C9.94326 7.78928 9.79087 7.52908 9.79087 7.23307C9.79087 6.93707 9.94326 6.68403 10.1718 6.68403H16.1551C16.2736 6.69852 16.3825 6.76439 16.4587 6.86774C16.5349 6.97108 16.5726 7.1038 16.5636 7.23785C16.5694 7.30467 16.5635 7.37214 16.5461 7.43635C16.5286 7.50057 16.5001 7.56025 16.4621 7.61196C16.4242 7.66368 16.3775 7.70639 16.3248 7.73765C16.2721 7.7689 16.2144 7.78807 16.1551 7.79405L10.1718 7.78928ZM4.13563 2.84071H22.1025C22.2359 2.84134 22.3637 2.9014 22.458 3.00781C22.5524 3.11422 22.6056 3.25837 22.6062 3.40885V5.05121H21.6728V3.76931H4.13563V15.9438C4.1359 16.0265 4.10973 16.1065 4.06191 16.1692C4.0141 16.2319 3.94784 16.2731 3.8753 16.2852C1.13445 16.765 1.00535 20.4245 3.79276 20.9497H21.6728V19.4123H22.6062V21.4319C22.6059 21.5824 22.5526 21.7266 22.458 21.8329C22.3636 21.9391 22.2358 21.9991 22.1025 22H3.77159C3.02236 22 1.97893 21.3364 1.54505 20.6369C1.11117 19.9375 0.969368 19.0805 1.00535 18.0612V4.77431C1.00535 2.51128 0.9863 0.0572917 3.79276 0H3.82662C3.90857 0 3.98717 0.0367194 4.04512 0.10208C4.10307 0.167441 4.13563 0.25609 4.13563 0.348524V2.84071ZM1.73554 16.5263C2.3472 15.8101 2.59483 15.7099 3.41602 15.5404V0.716146C1.49849 0.928602 1.72284 2.92904 1.72284 4.78624C1.72284 5.02496 1.72284 5.16819 1.72284 5.22786V16.5263H1.73554ZM8.05324 10.7971L8.22679 10.9928C8.24825 11.0178 8.26026 11.0512 8.26026 11.0859C8.26026 11.1207 8.24825 11.1541 8.22679 11.179L8.0871 11.3342C8.12564 11.4165 8.1548 11.5039 8.17388 11.5944H8.35378C8.38465 11.5944 8.41426 11.6082 8.43609 11.6329C8.45792 11.6575 8.47019 11.6909 8.47019 11.7257V12.0002C8.47019 12.0353 8.45799 12.0689 8.43622 12.0939C8.41445 12.1189 8.38485 12.1333 8.35378 12.1339H8.15695C8.13143 12.2177 8.09733 12.2978 8.05536 12.3726L8.18234 12.5158C8.20381 12.5408 8.21581 12.5742 8.21581 12.6089C8.21581 12.6437 8.20381 12.6771 8.18234 12.702L8.00879 12.8978C7.98703 12.9218 7.95778 12.9353 7.92731 12.9353C7.89684 12.9353 7.86758 12.9218 7.84582 12.8978L7.70614 12.7402C7.63336 12.7841 7.5558 12.817 7.47544 12.8381V13.041C7.47544 13.0758 7.46317 13.1092 7.44134 13.1339C7.41951 13.1585 7.3899 13.1723 7.35903 13.1723H7.11564C7.08476 13.1723 7.05516 13.1585 7.03332 13.1339C7.01149 13.1092 6.99923 13.0758 6.99923 13.041V12.819C6.92063 12.7911 6.84531 12.7527 6.77488 12.7044L6.64789 12.8477C6.62578 12.8719 6.59617 12.8854 6.56535 12.8854C6.53453 12.8854 6.50492 12.8719 6.48281 12.8477L6.31137 12.6519C6.30023 12.6399 6.29137 12.6254 6.28531 12.6094C6.27926 12.5934 6.27613 12.5762 6.27613 12.5588C6.27613 12.5414 6.27926 12.5242 6.28531 12.5082C6.29137 12.4922 6.30023 12.4777 6.31137 12.4657L6.44894 12.3105C6.41015 12.2287 6.38166 12.1411 6.36428 12.0503H6.18438C6.15351 12.0503 6.1239 12.0365 6.10207 12.0119C6.08024 11.9873 6.06798 11.9539 6.06798 11.9191V11.6612C6.06769 11.6439 6.0705 11.6267 6.07625 11.6106C6.082 11.5945 6.09056 11.5799 6.10143 11.5677C6.1123 11.5554 6.12525 11.5458 6.1395 11.5393C6.15375 11.5328 6.16902 11.5296 6.18438 11.5299H6.38122C6.40373 11.4404 6.43797 11.3551 6.48281 11.2769L6.35582 11.1337C6.34468 11.1216 6.33581 11.1072 6.32976 11.0912C6.3237 11.0752 6.32058 11.058 6.32058 11.0406C6.32058 11.0232 6.3237 11.006 6.32976 10.99C6.33581 10.974 6.34468 10.9595 6.35582 10.9475L6.52725 10.7541C6.53792 10.7416 6.55074 10.7316 6.56492 10.7247C6.57911 10.7179 6.59437 10.7144 6.6098 10.7144C6.62522 10.7144 6.64049 10.7179 6.65467 10.7247C6.66886 10.7316 6.68167 10.7416 6.69234 10.7541L6.83203 10.9093C6.90449 10.8652 6.98217 10.833 7.06272 10.8138V10.6109C7.06244 10.5935 7.06525 10.5761 7.07097 10.5599C7.07669 10.5437 7.08522 10.529 7.09606 10.5165C7.1069 10.5041 7.11983 10.4942 7.13409 10.4874C7.14835 10.4807 7.16366 10.4772 7.17913 10.4772H7.42253C7.45359 10.4778 7.4832 10.4922 7.50497 10.5172C7.52674 10.5422 7.53894 10.5758 7.53893 10.6109V10.8305C7.61685 10.8584 7.69147 10.8969 7.76116 10.9451L7.88815 10.8019C7.91027 10.7777 7.93988 10.7641 7.9707 10.7641C8.00151 10.7641 8.03112 10.7777 8.05324 10.8019V10.7971ZM7.26802 11.2888C7.36314 11.2888 7.45611 11.3207 7.53516 11.3803C7.61421 11.44 7.67579 11.5248 7.71209 11.6239C7.74839 11.7231 7.75778 11.8321 7.73907 11.9373C7.72036 12.0425 7.67439 12.1391 7.60699 12.2147C7.53959 12.2904 7.45378 12.3419 7.36045 12.3625C7.26711 12.3831 7.17045 12.3721 7.0827 12.3307C6.99494 12.2893 6.92006 12.2195 6.86752 12.13C6.81498 12.0406 6.78716 11.9356 6.78758 11.8283C6.78814 11.685 6.83901 11.5478 6.92905 11.4467C7.01909 11.3456 7.14097 11.2888 7.26802 11.2888ZM23.9459 10.5393C24.0034 10.5563 24.0556 10.591 24.0967 10.6394C24.1378 10.6879 24.1662 10.7482 24.1787 10.8138C24.2048 11.0509 24.1625 11.2911 24.0581 11.4989C24.0587 11.5037 24.0587 11.5085 24.0581 11.5132L23.5522 12.4538C23.3742 12.8202 23.1535 13.1582 22.8961 13.4588C22.7542 13.6146 22.5863 13.737 22.4021 13.819C22.2179 13.9009 22.0211 13.9408 21.8231 13.9362C21.4426 13.9398 21.0761 13.7743 20.8029 13.4755C20.5549 13.1954 20.3414 12.8791 20.168 12.5349L19.7235 11.7376C19.5814 11.526 19.4942 11.2739 19.4717 11.0095C19.4675 10.9203 19.482 10.8311 19.514 10.7493C19.5478 10.6682 19.6005 10.5989 19.6664 10.5488C19.7003 10.5239 19.7365 10.5031 19.7743 10.4868C19.7438 10.0101 19.7368 9.53197 19.7532 9.05447C19.7635 8.94472 19.7819 8.83613 19.8082 8.72982C20.477 6.23286 23.8634 6.44531 23.9734 9.24544L23.9459 10.5441V10.5393Z"/>
</mask>
<path fill-rule="evenodd" clip-rule="evenodd" d="M20.0156 10.7255C19.9413 10.7263 19.8685 10.7485 19.804 10.7899C19.7762 10.8111 19.7536 10.8398 19.7383 10.8735C19.7233 10.9159 19.716 10.9614 19.7172 11.0072C19.7402 11.2192 19.8133 11.4203 19.9288 11.5896L20.3733 12.3869C20.5374 12.7101 20.738 13.0078 20.9701 13.2726C21.1976 13.5195 21.5011 13.6572 21.8167 13.6569C21.983 13.6608 22.1482 13.6272 22.3027 13.5579C22.4572 13.4886 22.5978 13.3851 22.7162 13.2535C22.9586 12.9678 23.1658 12.6467 23.3321 12.2986L23.8316 11.37C23.908 11.2201 23.9448 11.0486 23.9374 10.8759C23.9247 10.8186 23.8697 10.7923 23.7766 10.7852H23.7152H23.6454H23.6052C23.5601 10.7898 23.5148 10.7898 23.4697 10.7852L23.6411 9.93055C22.3713 10.1693 21.4188 9.09266 20.0749 9.7181L20.168 10.7422C20.1173 10.7482 20.0663 10.7482 20.0156 10.7422V10.7255ZM16.6292 17.3498C16.7478 15.6263 16.4472 15.6024 17.7298 15.0605C18.4368 14.7889 19.1204 14.4454 19.7722 14.0341L20.8707 17.3498H16.6292ZM27 17.3498C26.8836 15.6263 27.182 15.6024 25.9015 15.0605C25.194 14.7885 24.5097 14.445 23.857 14.0341L22.7586 17.3498H27ZM22.1321 15.5428H22.2845C22.3511 15.5421 22.4148 15.512 22.462 15.4589C22.5091 15.4057 22.5358 15.3338 22.5363 15.2587V14.8003C22.5363 14.725 22.5098 14.6528 22.4626 14.5995C22.4153 14.5462 22.3513 14.5163 22.2845 14.5163H21.3744C21.3076 14.5163 21.2435 14.5462 21.1963 14.5995C21.1491 14.6528 21.1225 14.725 21.1225 14.8003V15.2611C21.1231 15.3362 21.1498 15.4081 21.1969 15.4612C21.244 15.5144 21.3078 15.5445 21.3744 15.5451H21.5352L21.2389 17.3522H22.4242L22.1384 15.5451L22.1321 15.5428ZM8.05324 15.6454L8.22679 15.8388C8.24825 15.8637 8.26026 15.8971 8.26026 15.9319C8.26026 15.9666 8.24825 16 8.22679 16.025L8.0871 16.1825C8.12599 16.2646 8.15516 16.3521 8.17388 16.4427H8.35378C8.38465 16.4427 8.41426 16.4565 8.43609 16.4812C8.45792 16.5058 8.47019 16.5392 8.47019 16.574V16.8485C8.47019 16.8833 8.45792 16.9167 8.43609 16.9414C8.41426 16.966 8.38465 16.9798 8.35378 16.9798H8.15695C8.13263 17.0679 8.0985 17.1521 8.05536 17.2305L8.18234 17.3761C8.20381 17.401 8.21581 17.4344 8.21581 17.4692C8.21581 17.5039 8.20381 17.5373 8.18234 17.5623L8.00879 17.7556C7.98703 17.7797 7.95778 17.7932 7.92731 17.7932C7.89684 17.7932 7.86758 17.7797 7.84582 17.7556L7.70614 17.5981C7.63336 17.6419 7.5558 17.6748 7.47544 17.696V17.9036C7.47544 17.9385 7.46317 17.9719 7.44134 17.9965C7.41951 18.0211 7.3899 18.0349 7.35903 18.0349H7.11564C7.08476 18.0349 7.05516 18.0211 7.03332 17.9965C7.01149 17.9719 6.99923 17.9385 6.99923 17.9036V17.6816C6.9203 17.6548 6.84486 17.6162 6.77488 17.5671L6.64789 17.7103C6.63723 17.7228 6.62441 17.7328 6.61023 17.7397C6.59604 17.7465 6.58078 17.75 6.56535 17.75C6.54993 17.75 6.53466 17.7465 6.52048 17.7397C6.50629 17.7328 6.49348 17.7228 6.48281 17.7103L6.31137 17.5169C6.30023 17.5049 6.29137 17.4904 6.28531 17.4744C6.27926 17.4584 6.27613 17.4412 6.27613 17.4238C6.27613 17.4064 6.27926 17.3892 6.28531 17.3732C6.29137 17.3572 6.30023 17.3428 6.31137 17.3307L6.44894 17.1732C6.40984 17.0915 6.38133 17.0038 6.36428 16.913H6.18438C6.16902 16.9133 6.15375 16.9101 6.1395 16.9036C6.12525 16.8972 6.1123 16.8875 6.10143 16.8752C6.09056 16.863 6.082 16.8484 6.07625 16.8323C6.0705 16.8162 6.06769 16.799 6.06798 16.7817V16.5024C6.06798 16.4676 6.08024 16.4342 6.10207 16.4095C6.1239 16.3849 6.15351 16.3711 6.18438 16.3711H6.38122C6.40509 16.2866 6.43928 16.2062 6.48281 16.1324L6.35582 15.9891C6.34468 15.9771 6.33581 15.9627 6.32976 15.9467C6.3237 15.9307 6.32058 15.9134 6.32058 15.896C6.32058 15.8787 6.3237 15.8614 6.32976 15.8454C6.33581 15.8294 6.34468 15.815 6.35582 15.8029L6.52725 15.6072C6.54937 15.583 6.57898 15.5695 6.6098 15.5695C6.64062 15.5695 6.67022 15.583 6.69234 15.6072L6.83203 15.7648C6.9048 15.7209 6.98236 15.688 7.06272 15.6669V15.464C7.06272 15.4292 7.07499 15.3958 7.09682 15.3711C7.11865 15.3465 7.14826 15.3327 7.17913 15.3327H7.42253C7.4534 15.3327 7.48301 15.3465 7.50484 15.3711C7.52667 15.3958 7.53893 15.4292 7.53893 15.464V15.686C7.61753 15.7119 7.69239 15.7504 7.76116 15.8006L7.88815 15.6573C7.89882 15.6448 7.91163 15.6348 7.92582 15.6279C7.94001 15.6211 7.95527 15.6176 7.9707 15.6176C7.98612 15.6176 8.00139 15.6211 8.01557 15.6279C8.02976 15.6348 8.04257 15.6448 8.05324 15.6573V15.6454ZM7.26802 16.1228C7.36305 16.1228 7.45593 16.1546 7.53494 16.2142C7.61395 16.2737 7.67553 16.3583 7.71189 16.4573C7.74826 16.5564 7.75777 16.6653 7.73923 16.7704C7.7207 16.8755 7.67494 16.9721 7.60775 17.0479C7.54056 17.1237 7.45495 17.1753 7.36175 17.1962C7.26856 17.2171 7.17196 17.2064 7.08417 17.1653C6.99638 17.1243 6.92134 17.0549 6.86855 16.9658C6.81576 16.8767 6.78758 16.7719 6.78758 16.6647C6.78758 16.521 6.8382 16.3832 6.9283 16.2815C7.0184 16.1799 7.1406 16.1228 7.26802 16.1228ZM10.1972 12.375C10.0787 12.3605 9.96989 12.2946 9.89366 12.1913C9.81744 12.0879 9.77982 11.9552 9.78876 11.8212C9.78294 11.7545 9.78892 11.6871 9.80636 11.6231C9.8238 11.559 9.85235 11.4995 9.89035 11.448C9.92835 11.3964 9.97505 11.3539 10.0277 11.3229C10.0804 11.2919 10.138 11.273 10.1972 11.2674H15.4228C15.5415 11.2819 15.6506 11.3476 15.7271 11.4509C15.8037 11.5542 15.8418 11.6869 15.8334 11.8212C15.839 11.888 15.8327 11.9554 15.815 12.0195C15.7973 12.0836 15.7686 12.1431 15.7304 12.1945C15.6922 12.246 15.6454 12.2885 15.5926 12.3195C15.5398 12.3504 15.4821 12.3693 15.4228 12.375H10.1972ZM10.1972 17.2185C10.079 17.2035 9.97042 17.1374 9.8943 17.0342C9.81817 16.931 9.78036 16.7986 9.78876 16.6647C9.78293 16.5979 9.78889 16.5304 9.80631 16.4662C9.82373 16.402 9.85225 16.3423 9.89023 16.2906C9.9282 16.2389 9.97489 16.1962 10.0276 16.1649C10.0803 16.1337 10.1379 16.1145 10.1972 16.1085H13.7635C13.8822 16.1236 13.991 16.1899 14.0672 16.2937C14.1434 16.3974 14.181 16.5304 14.172 16.6647C14.1778 16.7314 14.1718 16.7987 14.1544 16.8628C14.1369 16.9269 14.1084 16.9864 14.0704 17.0379C14.0324 17.0895 13.9857 17.132 13.933 17.163C13.8803 17.194 13.8227 17.2128 13.7635 17.2185H10.1972ZM7.25532 8.26671C7.19779 8.31227 7.12723 8.3319 7.05751 8.32174C6.98779 8.31157 6.92397 8.27236 6.87859 8.21181L6.84684 8.17361L6.32196 7.56489C6.29699 7.53011 6.27843 7.49006 6.26735 7.4471C6.25627 7.40413 6.2529 7.3591 6.25743 7.31464C6.26196 7.27019 6.27431 7.2272 6.29375 7.18819C6.31318 7.14918 6.33932 7.11494 6.37063 7.08746C6.43244 7.02247 6.51304 6.98497 6.59749 6.9819C6.68194 6.97883 6.76452 7.01039 6.82991 7.07075L7.10717 7.40017L8.02572 6.56944C8.05873 6.54483 8.09591 6.52821 8.13491 6.52065C8.17391 6.51308 8.21388 6.51474 8.25228 6.52551C8.29069 6.53629 8.32669 6.55594 8.358 6.58323C8.38932 6.61051 8.41527 6.64484 8.43421 6.68403C8.48966 6.75588 8.51841 6.84908 8.51447 6.94424C8.51052 7.0394 8.47419 7.12917 8.41304 7.19488L7.26591 8.26671H7.25532ZM10.1718 7.78928C9.94326 7.78928 9.79087 7.52908 9.79087 7.23307C9.79087 6.93707 9.94326 6.68403 10.1718 6.68403H16.1551C16.2736 6.69852 16.3825 6.76439 16.4587 6.86774C16.5349 6.97108 16.5726 7.1038 16.5636 7.23785C16.5694 7.30467 16.5635 7.37214 16.5461 7.43635C16.5286 7.50057 16.5001 7.56025 16.4621 7.61196C16.4242 7.66368 16.3775 7.70639 16.3248 7.73765C16.2721 7.7689 16.2144 7.78807 16.1551 7.79405L10.1718 7.78928ZM4.13563 2.84071H22.1025C22.2359 2.84134 22.3637 2.9014 22.458 3.00781C22.5524 3.11422 22.6056 3.25837 22.6062 3.40885V5.05121H21.6728V3.76931H4.13563V15.9438C4.1359 16.0265 4.10973 16.1065 4.06191 16.1692C4.0141 16.2319 3.94784 16.2731 3.8753 16.2852C1.13445 16.765 1.00535 20.4245 3.79276 20.9497H21.6728V19.4123H22.6062V21.4319C22.6059 21.5824 22.5526 21.7266 22.458 21.8329C22.3636 21.9391 22.2358 21.9991 22.1025 22H3.77159C3.02236 22 1.97893 21.3364 1.54505 20.6369C1.11117 19.9375 0.969368 19.0805 1.00535 18.0612V4.77431C1.00535 2.51128 0.9863 0.0572917 3.79276 0H3.82662C3.90857 0 3.98717 0.0367194 4.04512 0.10208C4.10307 0.167441 4.13563 0.25609 4.13563 0.348524V2.84071ZM1.73554 16.5263C2.3472 15.8101 2.59483 15.7099 3.41602 15.5404V0.716146C1.49849 0.928602 1.72284 2.92904 1.72284 4.78624C1.72284 5.02496 1.72284 5.16819 1.72284 5.22786V16.5263H1.73554ZM8.05324 10.7971L8.22679 10.9928C8.24825 11.0178 8.26026 11.0512 8.26026 11.0859C8.26026 11.1207 8.24825 11.1541 8.22679 11.179L8.0871 11.3342C8.12564 11.4165 8.1548 11.5039 8.17388 11.5944H8.35378C8.38465 11.5944 8.41426 11.6082 8.43609 11.6329C8.45792 11.6575 8.47019 11.6909 8.47019 11.7257V12.0002C8.47019 12.0353 8.45799 12.0689 8.43622 12.0939C8.41445 12.1189 8.38485 12.1333 8.35378 12.1339H8.15695C8.13143 12.2177 8.09733 12.2978 8.05536 12.3726L8.18234 12.5158C8.20381 12.5408 8.21581 12.5742 8.21581 12.6089C8.21581 12.6437 8.20381 12.6771 8.18234 12.702L8.00879 12.8978C7.98703 12.9218 7.95778 12.9353 7.92731 12.9353C7.89684 12.9353 7.86758 12.9218 7.84582 12.8978L7.70614 12.7402C7.63336 12.7841 7.5558 12.817 7.47544 12.8381V13.041C7.47544 13.0758 7.46317 13.1092 7.44134 13.1339C7.41951 13.1585 7.3899 13.1723 7.35903 13.1723H7.11564C7.08476 13.1723 7.05516 13.1585 7.03332 13.1339C7.01149 13.1092 6.99923 13.0758 6.99923 13.041V12.819C6.92063 12.7911 6.84531 12.7527 6.77488 12.7044L6.64789 12.8477C6.62578 12.8719 6.59617 12.8854 6.56535 12.8854C6.53453 12.8854 6.50492 12.8719 6.48281 12.8477L6.31137 12.6519C6.30023 12.6399 6.29137 12.6254 6.28531 12.6094C6.27926 12.5934 6.27613 12.5762 6.27613 12.5588C6.27613 12.5414 6.27926 12.5242 6.28531 12.5082C6.29137 12.4922 6.30023 12.4777 6.31137 12.4657L6.44894 12.3105C6.41015 12.2287 6.38166 12.1411 6.36428 12.0503H6.18438C6.15351 12.0503 6.1239 12.0365 6.10207 12.0119C6.08024 11.9873 6.06798 11.9539 6.06798 11.9191V11.6612C6.06769 11.6439 6.0705 11.6267 6.07625 11.6106C6.082 11.5945 6.09056 11.5799 6.10143 11.5677C6.1123 11.5554 6.12525 11.5458 6.1395 11.5393C6.15375 11.5328 6.16902 11.5296 6.18438 11.5299H6.38122C6.40373 11.4404 6.43797 11.3551 6.48281 11.2769L6.35582 11.1337C6.34468 11.1216 6.33581 11.1072 6.32976 11.0912C6.3237 11.0752 6.32058 11.058 6.32058 11.0406C6.32058 11.0232 6.3237 11.006 6.32976 10.99C6.33581 10.974 6.34468 10.9595 6.35582 10.9475L6.52725 10.7541C6.53792 10.7416 6.55074 10.7316 6.56492 10.7247C6.57911 10.7179 6.59437 10.7144 6.6098 10.7144C6.62522 10.7144 6.64049 10.7179 6.65467 10.7247C6.66886 10.7316 6.68167 10.7416 6.69234 10.7541L6.83203 10.9093C6.90449 10.8652 6.98217 10.833 7.06272 10.8138V10.6109C7.06244 10.5935 7.06525 10.5761 7.07097 10.5599C7.07669 10.5437 7.08522 10.529 7.09606 10.5165C7.1069 10.5041 7.11983 10.4942 7.13409 10.4874C7.14835 10.4807 7.16366 10.4772 7.17913 10.4772H7.42253C7.45359 10.4778 7.4832 10.4922 7.50497 10.5172C7.52674 10.5422 7.53894 10.5758 7.53893 10.6109V10.8305C7.61685 10.8584 7.69147 10.8969 7.76116 10.9451L7.88815 10.8019C7.91027 10.7777 7.93988 10.7641 7.9707 10.7641C8.00151 10.7641 8.03112 10.7777 8.05324 10.8019V10.7971ZM7.26802 11.2888C7.36314 11.2888 7.45611 11.3207 7.53516 11.3803C7.61421 11.44 7.67579 11.5248 7.71209 11.6239C7.74839 11.7231 7.75778 11.8321 7.73907 11.9373C7.72036 12.0425 7.67439 12.1391 7.60699 12.2147C7.53959 12.2904 7.45378 12.3419 7.36045 12.3625C7.26711 12.3831 7.17045 12.3721 7.0827 12.3307C6.99494 12.2893 6.92006 12.2195 6.86752 12.13C6.81498 12.0406 6.78716 11.9356 6.78758 11.8283C6.78814 11.685 6.83901 11.5478 6.92905 11.4467C7.01909 11.3456 7.14097 11.2888 7.26802 11.2888ZM23.9459 10.5393C24.0034 10.5563 24.0556 10.591 24.0967 10.6394C24.1378 10.6879 24.1662 10.7482 24.1787 10.8138C24.2048 11.0509 24.1625 11.2911 24.0581 11.4989C24.0587 11.5037 24.0587 11.5085 24.0581 11.5132L23.5522 12.4538C23.3742 12.8202 23.1535 13.1582 22.8961 13.4588C22.7542 13.6146 22.5863 13.737 22.4021 13.819C22.2179 13.9009 22.0211 13.9408 21.8231 13.9362C21.4426 13.9398 21.0761 13.7743 20.8029 13.4755C20.5549 13.1954 20.3414 12.8791 20.168 12.5349L19.7235 11.7376C19.5814 11.526 19.4942 11.2739 19.4717 11.0095C19.4675 10.9203 19.482 10.8311 19.514 10.7493C19.5478 10.6682 19.6005 10.5989 19.6664 10.5488C19.7003 10.5239 19.7365 10.5031 19.7743 10.4868C19.7438 10.0101 19.7368 9.53197 19.7532 9.05447C19.7635 8.94472 19.7819 8.83613 19.8082 8.72982C20.477 6.23286 23.8634 6.44531 23.9734 9.24544L23.9459 10.5441V10.5393Z" fill="black" stroke="black" stroke-width="48" mask="url(#path-1-inside-1_124_5)"/>
</g>
</g>
</svg>
