<svg width="33" height="30" viewBox="0 0 33 30" fill="none" xmlns="http://www.w3.org/2000/svg">
<g id="Logo.45979bb075e157a3950b7c17a8ed50c9 1" clip-path="url(#clip0_614_8579)">
<path id="Vector" d="M16.2669 26.25C22.4649 26.25 27.4894 20.3737 27.4894 13.125C27.4894 5.87626 22.4649 0 16.2669 0C10.0689 0 5.04443 5.87626 5.04443 13.125C5.04443 20.3737 10.0689 26.25 16.2669 26.25Z" fill="#FFC73B"/>
<path id="Vector_2" d="M18.5772 5.625C19.4887 5.625 20.2276 4.92545 20.2276 4.0625C20.2276 3.19956 19.4887 2.5 18.5772 2.5C17.6658 2.5 16.9269 3.19956 16.9269 4.0625C16.9269 4.92545 17.6658 5.625 18.5772 5.625Z" fill="black"/>
<path id="Vector_3" d="M4.71423 6.56252V12.5C5.24234 13.5 5.8145 12.7083 6.0345 12.1875V7.18748H14.2863L7.68486 14.6875C6.3646 16.1875 7.35481 16.5625 8.01497 16.5625H11.6458L5.37439 24.0625C4.37126 26.1854 5.52001 25.6057 6.3646 25C8.34502 22.7084 12.57 17.8125 13.6262 16.5625C14.6824 15.3125 13.8462 14.7917 13.2961 14.6875H9.66533L16.2667 6.875C16.7949 6.37502 16.0467 6.0417 15.6066 5.9375H5.70444C4.91228 5.9375 4.71423 6.35418 4.71423 6.56252Z" fill="black"/>
<path id="Vector_4" d="M16.2668 15.6248L8.01501 24.9998C7.22286 26.4999 8.34507 26.2496 9.00522 25.937L17.257 16.5623C17.7852 15.0623 16.817 15.3122 16.2668 15.6248Z" fill="black"/>
<path id="Vector_5" d="M28.4794 6.87506C28.2153 6.12506 27.7092 6.56253 27.4892 6.87506L11.9758 24.6876C11.1837 26.4375 12.3059 26.042 12.966 25.6254L27.4892 9.06287V12.1878C28.0173 13.6878 28.5894 12.8129 28.8095 12.1878C28.8095 10.7294 28.7434 7.62506 28.4794 6.87506Z" fill="black"/>
</g>
<defs>
<clipPath id="clip0_614_8579">
<rect width="33" height="30" fill="white"/>
</clipPath>
</defs>
</svg>
