<svg width="652" height="603" viewBox="0 0 652 603" fill="none" xmlns="http://www.w3.org/2000/svg">
<path fill-rule="evenodd" clip-rule="evenodd" d="M289.493 74.7463C331.078 73.1417 349.318 11.7426 390.01 3.0217C431.199 -5.80571 475.211 7.69491 512.698 26.9098C552.233 47.1751 586.75 77.9711 610.038 115.805C633.649 154.164 662.247 202.152 646.554 244.374C628.483 292.993 539.727 290.495 526.47 340.642C511.616 396.83 601.705 452.483 577.563 505.35C557.695 548.856 483.162 516.428 438.446 533.399C395.719 549.615 367.308 605.848 321.734 602.444C275.304 598.975 245.538 550.372 213.494 516.594C187.807 489.517 183.147 445.511 152.565 424.117C109.154 393.747 27.6043 418.371 4.76472 370.568C-16.1482 326.797 49.3224 285.667 64.3856 239.555C76.4749 202.547 71.52 162.465 84.71 125.835C99.4374 84.9347 103.991 22.9528 146.169 12.4303C197.273 -0.318981 236.862 76.777 289.493 74.7463Z" fill="white"/>
</svg>
