<svg id="visual" viewBox="0 0 900 600" width="900" height="600" xmlns="http://www.w3.org/2000/svg" xmlns:xlink="http://www.w3.org/1999/xlink" version="1.1"><rect x="0" y="0" width="900" height="600" fill="#001220"></rect><path d="M0 419L21.5 413.8C43 408.7 86 398.3 128.8 387.2C171.7 376 214.3 364 257.2 373.2C300 382.3 343 412.7 385.8 426.8C428.7 441 471.3 439 514.2 429.3C557 419.7 600 402.3 642.8 393C685.7 383.7 728.3 382.3 771.2 377.5C814 372.7 857 364.3 878.5 360.2L900 356L900 601L878.5 601C857 601 814 601 771.2 601C728.3 601 685.7 601 642.8 601C600 601 557 601 514.2 601C471.3 601 428.7 601 385.8 601C343 601 300 601 257.2 601C214.3 601 171.7 601 128.8 601C86 601 43 601 21.5 601L0 601Z" fill="#003136"></path><path d="M0 419L21.5 422.7C43 426.3 86 433.7 128.8 430C171.7 426.3 214.3 411.7 257.2 418.2C300 424.7 343 452.3 385.8 458.2C428.7 464 471.3 448 514.2 433.8C557 419.7 600 407.3 642.8 404.3C685.7 401.3 728.3 407.7 771.2 417.2C814 426.7 857 439.3 878.5 445.7L900 452L900 601L878.5 601C857 601 814 601 771.2 601C728.3 601 685.7 601 642.8 601C600 601 557 601 514.2 601C471.3 601 428.7 601 385.8 601C343 601 300 601 257.2 601C214.3 601 171.7 601 128.8 601C86 601 43 601 21.5 601L0 601Z" fill="#084e55"></path><path d="M0 447L21.5 451.7C43 456.3 86 465.7 128.8 468.2C171.7 470.7 214.3 466.3 257.2 465.7C300 465 343 468 385.8 474.8C428.7 481.7 471.3 492.3 514.2 490.2C557 488 600 473 642.8 471C685.7 469 728.3 480 771.2 479.2C814 478.3 857 465.7 878.5 459.3L900 453L900 601L878.5 601C857 601 814 601 771.2 601C728.3 601 685.7 601 642.8 601C600 601 557 601 514.2 601C471.3 601 428.7 601 385.8 601C343 601 300 601 257.2 601C214.3 601 171.7 601 128.8 601C86 601 43 601 21.5 601L0 601Z" fill="#156d76"></path><path d="M0 535L21.5 526.2C43 517.3 86 499.7 128.8 500.2C171.7 500.7 214.3 519.3 257.2 528.3C300 537.3 343 536.7 385.8 535.7C428.7 534.7 471.3 533.3 514.2 525.2C557 517 600 502 642.8 495.2C685.7 488.3 728.3 489.7 771.2 493.3C814 497 857 503 878.5 506L900 509L900 601L878.5 601C857 601 814 601 771.2 601C728.3 601 685.7 601 642.8 601C600 601 557 601 514.2 601C471.3 601 428.7 601 385.8 601C343 601 300 601 257.2 601C214.3 601 171.7 601 128.8 601C86 601 43 601 21.5 601L0 601Z" fill="#228d98"></path><path d="M0 565L21.5 562.8C43 560.7 86 556.3 128.8 555.3C171.7 554.3 214.3 556.7 257.2 558C300 559.3 343 559.7 385.8 558C428.7 556.3 471.3 552.7 514.2 548.2C557 543.7 600 538.3 642.8 538.5C685.7 538.7 728.3 544.3 771.2 550.2C814 556 857 562 878.5 565L900 568L900 601L878.5 601C857 601 814 601 771.2 601C728.3 601 685.7 601 642.8 601C600 601 557 601 514.2 601C471.3 601 428.7 601 385.8 601C343 601 300 601 257.2 601C214.3 601 171.7 601 128.8 601C86 601 43 601 21.5 601L0 601Z" fill="#30afbc"></path></svg>